<?xml version="1.0" encoding="UTF-8" standalone="no"?>
<!-- Created with Inkscape (http://www.inkscape.org/) -->

<svg
   xmlns:dc="http://purl.org/dc/elements/1.1/"
   xmlns:cc="http://creativecommons.org/ns#"
   xmlns:rdf="http://www.w3.org/1999/02/22-rdf-syntax-ns#"
   xmlns:svg="http://www.w3.org/2000/svg"
   xmlns="http://www.w3.org/2000/svg"
   xmlns:sodipodi="http://sodipodi.sourceforge.net/DTD/sodipodi-0.dtd"
   xmlns:inkscape="http://www.inkscape.org/namespaces/inkscape"
   width="744.09448819"
   height="1052.3622047"
   id="svg2"
   version="1.1"
   inkscape:version="0.48.5 r10040"
   sodipodi:docname="Ball_Turret.svg"
   inkscape:export-filename="C:\Users\Quinn\git\RollingThunder\Assets\Original Art\Ball_Turret.png"
   inkscape:export-xdpi="90"
   inkscape:export-ydpi="90">
  <defs
     id="defs4" />
  <sodipodi:namedview
     id="base"
     pagecolor="#ffffff"
     bordercolor="#666666"
     borderopacity="1.0"
     inkscape:pageopacity="0.0"
     inkscape:pageshadow="2"
     inkscape:zoom="0.7"
     inkscape:cx="357.25529"
     inkscape:cy="539.76201"
     inkscape:document-units="px"
     inkscape:current-layer="layer1"
     showgrid="false"
     inkscape:window-width="1920"
     inkscape:window-height="1018"
     inkscape:window-x="-8"
     inkscape:window-y="-8"
     inkscape:window-maximized="1" />
  <metadata
     id="metadata7">
    <rdf:RDF>
      <cc:Work
         rdf:about="">
        <dc:format>image/svg+xml</dc:format>
        <dc:type
           rdf:resource="http://purl.org/dc/dcmitype/StillImage" />
        <dc:title></dc:title>
      </cc:Work>
    </rdf:RDF>
  </metadata>
  <g
     inkscape:label="Layer 1"
     inkscape:groupmode="layer"
     id="layer1">
    <path
       sodipodi:type="arc"
       style="fill:#000000;fill-opacity:1;stroke:#000000;stroke-width:1;stroke-linecap:round;stroke-miterlimit:4;stroke-opacity:1;stroke-dasharray:none;stroke-dashoffset:0"
       id="path3000"
       sodipodi:cx="85.357887"
       sodipodi:cy="555.36713"
       sodipodi:rx="289.40869"
       sodipodi:ry="306.07623"
       d="m 374.76658,555.36713 a 289.40869,306.07623 0 1 1 -578.81738,-2e-5"
       sodipodi:start="0"
       sodipodi:end="3.1415927"
       sodipodi:open="true"
       transform="matrix(0,1.0095898,-0.96176068,0,907.88671,440.14625)" />
    <g
       id="g3706"
       transform="translate(846.50783,291.93409)">
      <path
         id="rect3004"
         d="m -271.71875,212.40625 0,23.25 15.65625,0 c -0.0177,-0.14352 -0.0312,-0.28913 -0.0312,-0.4375 0,-1.95262 1.57863,-3.53125 3.53125,-3.53125 1.95262,0 3.53125,1.57863 3.53125,3.53125 0,0.14837 -0.0136,0.29398 -0.0312,0.4375 l 15.1875,0 c -0.0177,-0.14352 -0.0312,-0.28913 -0.0312,-0.4375 0,-1.95262 1.57863,-3.53125 3.53125,-3.53125 1.95262,0 3.53125,1.57863 3.53125,3.53125 0,0.14837 -0.0136,0.29398 -0.0312,0.4375 l 15.1875,0 c -0.0177,-0.14352 -0.0312,-0.28913 -0.0312,-0.4375 0,-1.95262 1.57863,-3.53125 3.53125,-3.53125 1.95262,0 3.53125,1.57863 3.53125,3.53125 0,0.14837 -0.0136,0.29398 -0.0312,0.4375 l 15.1875,0 c -0.0177,-0.14352 -0.0312,-0.28913 -0.0312,-0.4375 0,-1.95262 1.57863,-3.53125 3.53125,-3.53125 1.95262,0 3.5625,1.57863 3.5625,3.53125 0,0.14837 -0.0132,0.29398 -0.0312,0.4375 l 15.15625,0 c -0.018,-0.14352 -0.0312,-0.28913 -0.0312,-0.4375 0,-1.95262 1.60988,-3.53125 3.5625,-3.53125 1.95262,0 3.53125,1.57863 3.53125,3.53125 0,0.14837 -0.0136,0.29398 -0.0312,0.4375 l 15.1875,0 c -0.0177,-0.14352 -0.0312,-0.28913 -0.0312,-0.4375 0,-1.95262 1.57863,-3.53125 3.53125,-3.53125 1.95262,0 3.53125,1.57863 3.53125,3.53125 0,0.14837 -0.0136,0.29398 -0.0312,0.4375 l 15.1875,0 c -0.0177,-0.14352 -0.0312,-0.28913 -0.0312,-0.4375 0,-1.95262 1.57863,-3.53125 3.53125,-3.53125 1.95262,0 3.53125,1.57863 3.53125,3.53125 0,0.14837 -0.0135,0.29398 -0.0312,0.4375 l 15.1875,0 c -0.0177,-0.14352 -0.0312,-0.28913 -0.0312,-0.4375 0,-1.95262 1.578629,-3.53125 3.53125,-3.53125 1.952621,0 3.53125,1.57863 3.53125,3.53125 0,0.14837 -0.01355,0.29398 -0.03125,0.4375 l 15.1875,0 c -0.0177,-0.14352 -0.03125,-0.28913 -0.03125,-0.4375 0,-1.95262 1.578629,-3.53125 3.53125,-3.53125 1.952621,0 3.53125,1.57863 3.53125,3.53125 0,0.14837 -0.01355,0.29398 -0.03125,0.4375 l 15.1875,0 c -0.0177,-0.14352 -0.03125,-0.28913 -0.03125,-0.4375 0,-1.95262 1.578629,-3.53125 3.53125,-3.53125 1.952621,0 3.53125,1.57863 3.53125,3.53125 0,0.14837 -0.01355,0.29398 -0.03125,0.4375 l 15.1875,0 c -0.01803,-0.14352 -0.03125,-0.28913 -0.03125,-0.4375 0,-1.95262 1.609879,-3.53125 3.5625,-3.53125 1.952621,0 3.53125,1.57863 3.53125,3.53125 0,0.14837 -0.01355,0.29398 -0.03125,0.4375 l 15.1875,0 c -0.0177,-0.14352 -0.03125,-0.28913 -0.03125,-0.4375 0,-1.95262 1.578629,-3.53125 3.53125,-3.53125 1.9526215,0 3.53125,1.57863 3.53125,3.53125 0,0.14837 -0.013549,0.29398 -0.03125,0.4375 l 15.1875,0 c -0.0177,-0.14352 -0.03125,-0.28913 -0.03125,-0.4375 0,-1.95262 1.578629,-3.53125 3.53125,-3.53125 1.952621,0 3.53125,1.57863 3.53125,3.53125 0,0.14837 -0.01355,0.29398 -0.03125,0.4375 l 15.1875,0 c -0.0177,-0.14352 -0.03125,-0.28913 -0.03125,-0.4375 0,-1.95262 1.578629,-3.53125 3.53125,-3.53125 1.952621,0 3.53125,1.57863 3.53125,3.53125 0,0.14837 -0.01355,0.29398 -0.03125,0.4375 l 15.1875,0 c -0.0177,-0.14352 -0.03125,-0.28913 -0.03125,-0.4375 0,-1.95262 1.578629,-3.53125 3.53125,-3.53125 1.952621,0 3.53125,1.57863 3.53125,3.53125 0,0.14837 -0.01355,0.29398 -0.03125,0.4375 l 15.1875,0 c -0.0177,-0.14352 -0.03125,-0.28913 -0.03125,-0.4375 0,-1.95262 1.578629,-3.53125 3.53125,-3.53125 1.952621,0 3.53125,1.57863 3.53125,3.53125 0,0.14837 -0.01355,0.29398 -0.03125,0.4375 l 15.1875,0 c -0.0177,-0.14352 -0.03125,-0.28913 -0.03125,-0.4375 0,-1.95262 1.57863,-3.53125 3.53125,-3.53125 1.95262,0 3.5625,1.57863 3.5625,3.53125 0,0.14837 -0.0132,0.29398 -0.0312,0.4375 l 11.59375,0 c -0.0177,-0.14352 -0.0312,-0.28913 -0.0312,-0.4375 0,-1.95262 1.57863,-3.53125 3.53125,-3.53125 1.95262,0 3.53125,1.57863 3.53125,3.53125 0,0.14837 -0.0135,0.29398 -0.0312,0.4375 l 5.6875,0 0,-23.25 -5.6875,0 c 0.0153,0.13369 0.0312,0.26841 0.0312,0.40625 0,1.95262 -1.57863,3.53125 -3.53125,3.53125 -1.95262,0 -3.53125,-1.57863 -3.53125,-3.53125 0,-0.13784 0.0159,-0.27256 0.0312,-0.40625 l -11.59375,0 c 0.0156,0.13369 0.0312,0.26841 0.0312,0.40625 0,1.95262 -1.60988,3.53125 -3.5625,3.53125 -1.95262,0 -3.53125,-1.57863 -3.53125,-3.53125 0,-0.13784 0.01594,-0.27256 0.03125,-0.40625 l -15.1875,0 c 0.01531,0.13369 0.03125,0.26841 0.03125,0.40625 0,1.95262 -1.578629,3.53125 -3.53125,3.53125 -1.952621,0 -3.53125,-1.57863 -3.53125,-3.53125 0,-0.13784 0.01594,-0.27256 0.03125,-0.40625 l -15.1875,0 c 0.01531,0.13369 0.03125,0.26841 0.03125,0.40625 0,1.95262 -1.578629,3.53125 -3.53125,3.53125 -1.952621,0 -3.53125,-1.57863 -3.53125,-3.53125 0,-0.13784 0.01594,-0.27256 0.03125,-0.40625 l -15.1875,0 c 0.01531,0.13369 0.03125,0.26841 0.03125,0.40625 0,1.95262 -1.578629,3.53125 -3.53125,3.53125 -1.952621,0 -3.53125,-1.57863 -3.53125,-3.53125 0,-0.13784 0.01594,-0.27256 0.03125,-0.40625 l -15.1875,0 c 0.01531,0.13369 0.03125,0.26841 0.03125,0.40625 0,1.95262 -1.578629,3.53125 -3.53125,3.53125 -1.952621,0 -3.53125,-1.57863 -3.53125,-3.53125 0,-0.13784 0.01594,-0.27256 0.03125,-0.40625 l -15.1875,0 c 0.015309,0.13369 0.03125,0.26841 0.03125,0.40625 0,1.95262 -1.5786285,3.53125 -3.53125,3.53125 -1.952621,0 -3.53125,-1.57863 -3.53125,-3.53125 0,-0.13784 0.01594,-0.27256 0.03125,-0.40625 l -15.1875,0 c 0.01531,0.13369 0.03125,0.26841 0.03125,0.40625 0,1.95262 -1.578629,3.53125 -3.53125,3.53125 -1.952621,0 -3.5625,-1.57863 -3.5625,-3.53125 0,-0.13784 0.01565,-0.27256 0.03125,-0.40625 l -15.1875,0 c 0.01531,0.13369 0.03125,0.26841 0.03125,0.40625 0,1.95262 -1.578629,3.53125 -3.53125,3.53125 -1.952621,0 -3.53125,-1.57863 -3.53125,-3.53125 0,-0.13784 0.01594,-0.27256 0.03125,-0.40625 l -15.1875,0 c 0.01531,0.13369 0.03125,0.26841 0.03125,0.40625 0,1.95262 -1.578629,3.53125 -3.53125,3.53125 -1.952621,0 -3.53125,-1.57863 -3.53125,-3.53125 0,-0.13784 0.01594,-0.27256 0.03125,-0.40625 l -15.1875,0 c 0.01531,0.13369 0.03125,0.26841 0.03125,0.40625 0,1.95262 -1.578629,3.53125 -3.53125,3.53125 -1.952621,0 -3.53125,-1.57863 -3.53125,-3.53125 0,-0.13784 0.0159,-0.27256 0.0312,-0.40625 l -15.1875,0 c 0.0153,0.13369 0.0312,0.26841 0.0312,0.40625 0,1.95262 -1.57863,3.53125 -3.53125,3.53125 -1.95262,0 -3.53125,-1.57863 -3.53125,-3.53125 0,-0.13784 0.0159,-0.27256 0.0312,-0.40625 l -15.1875,0 c 0.0153,0.13369 0.0312,0.26841 0.0312,0.40625 0,1.95262 -1.57863,3.53125 -3.53125,3.53125 -1.95262,0 -3.53125,-1.57863 -3.53125,-3.53125 0,-0.13784 0.0159,-0.27256 0.0312,-0.40625 l -15.1875,0 c 0.0153,0.13369 0.0312,0.26841 0.0312,0.40625 0,1.95262 -1.57863,3.53125 -3.53125,3.53125 -1.95262,0 -3.5625,-1.57863 -3.5625,-3.53125 0,-0.13784 0.0156,-0.27256 0.0312,-0.40625 l -15.15625,0 c 0.0156,0.13369 0.0312,0.26841 0.0312,0.40625 0,1.95262 -1.60988,3.53125 -3.5625,3.53125 -1.95262,0 -3.53125,-1.57863 -3.53125,-3.53125 0,-0.13784 0.0159,-0.27256 0.0312,-0.40625 l -15.1875,0 c 0.0153,0.13369 0.0312,0.26841 0.0312,0.40625 0,1.95262 -1.57863,3.53125 -3.53125,3.53125 -1.95262,0 -3.53125,-1.57863 -3.53125,-3.53125 0,-0.13784 0.0159,-0.27256 0.0312,-0.40625 l -15.1875,0 c 0.0153,0.13369 0.0312,0.26841 0.0312,0.40625 0,1.95262 -1.57863,3.53125 -3.53125,3.53125 -1.95262,0 -3.53125,-1.57863 -3.53125,-3.53125 0,-0.13784 0.0159,-0.27256 0.0312,-0.40625 l -15.1875,0 c 0.0153,0.13369 0.0312,0.26841 0.0312,0.40625 0,1.95262 -1.57863,3.53125 -3.53125,3.53125 -1.95262,0 -3.53125,-1.57863 -3.53125,-3.53125 0,-0.13784 0.0159,-0.27256 0.0312,-0.40625 l -15.65625,0 z M -252.5625,220.5 c 1.95262,0 3.53125,1.57863 3.53125,3.53125 0,1.95262 -1.57863,3.53125 -3.53125,3.53125 -1.95262,0 -3.53125,-1.57863 -3.53125,-3.53125 0,-1.95262 1.57863,-3.53125 3.53125,-3.53125 z m 22.1875,0 c 1.95262,0 3.53125,1.57863 3.53125,3.53125 0,1.95262 -1.57863,3.53125 -3.53125,3.53125 -1.95262,0 -3.53125,-1.57863 -3.53125,-3.53125 0,-1.95262 1.57863,-3.53125 3.53125,-3.53125 z m 22.1875,0 c 1.95262,0 3.53125,1.57863 3.53125,3.53125 0,1.95262 -1.57863,3.53125 -3.53125,3.53125 -1.95262,0 -3.53125,-1.57863 -3.53125,-3.53125 0,-1.95262 1.57863,-3.53125 3.53125,-3.53125 z m 22.1875,0 c 1.95262,0 3.5625,1.57863 3.5625,3.53125 0,1.95262 -1.60988,3.53125 -3.5625,3.53125 -1.95262,0 -3.53125,-1.57863 -3.53125,-3.53125 0,-1.95262 1.57863,-3.53125 3.53125,-3.53125 z m 22.21875,0 c 1.95262,0 3.53125,1.57863 3.53125,3.53125 0,1.95262 -1.57863,3.53125 -3.53125,3.53125 -1.95262,0 -3.5625,-1.57863 -3.5625,-3.53125 0,-1.95262 1.60988,-3.53125 3.5625,-3.53125 z m 22.1875,0 c 1.95262,0 3.53125,1.57863 3.53125,3.53125 0,1.95262 -1.57863,3.53125 -3.53125,3.53125 -1.95262,0 -3.53125,-1.57863 -3.53125,-3.53125 0,-1.95262 1.57863,-3.53125 3.53125,-3.53125 z m 22.1875,0 c 1.95262,0 3.53125,1.57863 3.53125,3.53125 0,1.95262 -1.57863,3.53125 -3.53125,3.53125 -1.95262,0 -3.53125,-1.57863 -3.53125,-3.53125 0,-1.95262 1.57863,-3.53125 3.53125,-3.53125 z m 22.1875,0 c 1.952621,0 3.53125,1.57863 3.53125,3.53125 0,1.95262 -1.578629,3.53125 -3.53125,3.53125 -1.952621,0 -3.53125,-1.57863 -3.53125,-3.53125 0,-1.95262 1.578629,-3.53125 3.53125,-3.53125 z m 22.1875,0 c 1.952621,0 3.53125,1.57863 3.53125,3.53125 0,1.95262 -1.578629,3.53125 -3.53125,3.53125 -1.952621,0 -3.53125,-1.57863 -3.53125,-3.53125 0,-1.95262 1.578629,-3.53125 3.53125,-3.53125 z m 22.1875,0 c 1.952621,0 3.53125,1.57863 3.53125,3.53125 0,1.95262 -1.578629,3.53125 -3.53125,3.53125 -1.952621,0 -3.53125,-1.57863 -3.53125,-3.53125 0,-1.95262 1.578629,-3.53125 3.53125,-3.53125 z m 22.21875,0 c 1.952621,0 3.53125,1.57863 3.53125,3.53125 0,1.95262 -1.578629,3.53125 -3.53125,3.53125 -1.952621,0 -3.5625,-1.57863 -3.5625,-3.53125 0,-1.95262 1.609879,-3.53125 3.5625,-3.53125 z m 22.1875,0 c 1.9526215,0 3.53125,1.57863 3.53125,3.53125 0,1.95262 -1.5786285,3.53125 -3.53125,3.53125 -1.952621,0 -3.53125,-1.57863 -3.53125,-3.53125 0,-1.95262 1.578629,-3.53125 3.53125,-3.53125 z m 22.1875,0 c 1.952621,0 3.53125,1.57863 3.53125,3.53125 0,1.95262 -1.578629,3.53125 -3.53125,3.53125 -1.952621,0 -3.53125,-1.57863 -3.53125,-3.53125 0,-1.95262 1.578629,-3.53125 3.53125,-3.53125 z m 22.1875,0 c 1.952621,0 3.53125,1.57863 3.53125,3.53125 0,1.95262 -1.578629,3.53125 -3.53125,3.53125 -1.952621,0 -3.53125,-1.57863 -3.53125,-3.53125 0,-1.95262 1.578629,-3.53125 3.53125,-3.53125 z m 22.1875,0 c 1.952621,0 3.53125,1.57863 3.53125,3.53125 0,1.95262 -1.578629,3.53125 -3.53125,3.53125 -1.952621,0 -3.53125,-1.57863 -3.53125,-3.53125 0,-1.95262 1.578629,-3.53125 3.53125,-3.53125 z m 22.1875,0 c 1.952621,0 3.53125,1.57863 3.53125,3.53125 0,1.95262 -1.578629,3.53125 -3.53125,3.53125 -1.952621,0 -3.53125,-1.57863 -3.53125,-3.53125 0,-1.95262 1.578629,-3.53125 3.53125,-3.53125 z m 22.1875,0 c 1.95262,0 3.5625,1.57863 3.5625,3.53125 0,1.95262 -1.60988,3.53125 -3.5625,3.53125 -1.95262,0 -3.53125,-1.57863 -3.53125,-3.53125 0,-1.95262 1.57863,-3.53125 3.53125,-3.53125 z m 18.625,0 c 1.95262,0 3.53125,1.57863 3.53125,3.53125 0,1.95262 -1.57863,3.53125 -3.53125,3.53125 -1.95262,0 -3.53125,-1.57863 -3.53125,-3.53125 0,-1.95262 1.57863,-3.53125 3.53125,-3.53125 z"
         style="fill:#666666;fill-opacity:1;stroke:#000000;stroke-width:1;stroke-linecap:round;stroke-miterlimit:4;stroke-opacity:1;stroke-dasharray:none;stroke-dashoffset:0"
         inkscape:connector-curvature="0" />
      <rect
         y="195.75282"
         x="-392.94934"
         height="74.751289"
         width="128.28937"
         id="rect3002"
         style="fill:#000000;fill-opacity:1;stroke:#000000;stroke-width:1;stroke-linecap:round;stroke-miterlimit:4;stroke-opacity:1;stroke-dasharray:none;stroke-dashoffset:0" />
      <rect
         y="211.38017"
         x="128.57143"
         height="25.206623"
         width="41.964287"
         id="rect3704"
         style="fill:#4d4d4d;fill-opacity:1;stroke:#000000;stroke-width:0.9636727;stroke-linecap:round;stroke-miterlimit:4;stroke-opacity:1;stroke-dasharray:none;stroke-dashoffset:0" />
    </g>
    <rect
       style="fill:#4d4d4d;fill-opacity:1;stroke:#000000;stroke-width:0.87322259;stroke-linecap:round;stroke-miterlimit:4;stroke-opacity:1;stroke-dasharray:none;stroke-dashoffset:0"
       id="rect3711"
       width="18.292259"
       height="357.30234"
       x="967.46362"
       y="655.12061"
       transform="matrix(1,0,-0.66791814,0.74423475,0,0)" />
    <path
       sodipodi:type="arc"
       style="opacity:0.57999998;fill:#00ffff;fill-opacity:1;stroke:#000000"
       id="path2985"
       sodipodi:cx="512.85712"
       sodipodi:cy="546.64789"
       sodipodi:rx="291.42856"
       sodipodi:ry="291.42856"
       d="m 804.28568,546.64789 a 291.42856,291.42856 0 1 1 -582.85712,0 291.42856,291.42856 0 1 1 582.85712,0 z"
       transform="matrix(1,0,0,1.001777,-140.80988,-20.920312)" />
    <path
       style="fill:#666666;fill-opacity:1;stroke:#000000;stroke-width:1.11937559000000000;stroke-linecap:round;stroke-miterlimit:4;stroke-opacity:1;stroke-dasharray:none;stroke-dashoffset:0"
       d="M 372.0625 265.53125 C 228.10693 265.53125 111.40625 382.23193 111.40625 526.1875 C 111.40625 670.14307 228.10693 786.84375 372.0625 786.84375 C 516.01807 786.84375 632.6875 670.14307 632.6875 526.1875 C 632.6875 382.23193 516.01807 265.53125 372.0625 265.53125 z M 372.0625 286.1875 C 504.61084 286.1875 612.0625 393.63916 612.0625 526.1875 C 612.0625 658.73584 504.61084 766.1875 372.0625 766.1875 C 239.51416 766.1875 132.0625 658.73584 132.0625 526.1875 C 132.0625 393.63916 239.51416 286.1875 372.0625 286.1875 z "
       id="path2987" />
    <rect
       style="fill:#666666;fill-opacity:1;stroke:#000000;stroke-width:1.57473528;stroke-linecap:round;stroke-miterlimit:4;stroke-opacity:1;stroke-dasharray:none;stroke-dashoffset:0"
       id="rect2996"
       width="25.714285"
       height="584.52222"
       x="361.42114"
       y="234.46172"
       rx="0"
       ry="0" />
    <path
       sodipodi:type="arc"
       style="fill:#666666;fill-opacity:1;stroke:#000000;stroke-width:1;stroke-linecap:round;stroke-miterlimit:4;stroke-opacity:1;stroke-dasharray:none;stroke-dashoffset:0"
       id="path2998"
       sodipodi:cx="260.61935"
       sodipodi:cy="501.82904"
       sodipodi:rx="267.69043"
       sodipodi:ry="277.79196"
       d="m 528.30978,501.82904 a 267.69043,277.79196 0 1 1 -535.3808554,-1e-5"
       sodipodi:start="0"
       sodipodi:end="3.1415927"
       sodipodi:open="true"
       transform="matrix(0,0.93459053,-0.87741025,0,804.08116,283.01166)" />
  </g>
</svg>
