<?xml version="1.0" encoding="UTF-8" standalone="no"?>
<!-- Created with Inkscape (http://www.inkscape.org/) -->

<svg
   xmlns:osb="http://www.openswatchbook.org/uri/2009/osb"
   xmlns:dc="http://purl.org/dc/elements/1.1/"
   xmlns:cc="http://creativecommons.org/ns#"
   xmlns:rdf="http://www.w3.org/1999/02/22-rdf-syntax-ns#"
   xmlns:svg="http://www.w3.org/2000/svg"
   xmlns="http://www.w3.org/2000/svg"
   xmlns:sodipodi="http://sodipodi.sourceforge.net/DTD/sodipodi-0.dtd"
   xmlns:inkscape="http://www.inkscape.org/namespaces/inkscape"
   width="744.09448819"
   height="1052.3622047"
   id="svg2"
   version="1.1"
   inkscape:version="0.48.5 r10040"
   sodipodi:docname="Tree.svg"
   inkscape:export-filename="C:\Users\Quinn\git\RollingThunder\Assets\Original Art\Tree.png"
   inkscape:export-xdpi="90"
   inkscape:export-ydpi="90">
  <defs
     id="defs4">
    <linearGradient
       id="linearGradient5220"
       osb:paint="solid">
      <stop
         style="stop-color:#000000;stop-opacity:1;"
         offset="0"
         id="stop5222" />
    </linearGradient>
  </defs>
  <sodipodi:namedview
     id="base"
     pagecolor="#ffffff"
     bordercolor="#666666"
     borderopacity="1.0"
     inkscape:pageopacity="0.0"
     inkscape:pageshadow="2"
     inkscape:zoom="0.24748737"
     inkscape:cx="139.00419"
     inkscape:cy="1462.9014"
     inkscape:document-units="px"
     inkscape:current-layer="layer1"
     showgrid="false"
     inkscape:window-width="1920"
     inkscape:window-height="1018"
     inkscape:window-x="-8"
     inkscape:window-y="-8"
     inkscape:window-maximized="1" />
  <metadata
     id="metadata7">
    <rdf:RDF>
      <cc:Work
         rdf:about="">
        <dc:format>image/svg+xml</dc:format>
        <dc:type
           rdf:resource="http://purl.org/dc/dcmitype/StillImage" />
        <dc:title></dc:title>
      </cc:Work>
    </rdf:RDF>
  </metadata>
  <g
     inkscape:label="Layer 1"
     inkscape:groupmode="layer"
     id="layer1">
    <g
       id="g3780"
       transform="translate(-60.609153,36.365492)"
       inkscape:export-xdpi="90"
       inkscape:export-ydpi="90">
      <path
         sodipodi:nodetypes="scccscssssss"
         inkscape:connector-curvature="0"
         id="path2985"
         d="M 69.898475,827.65805 C 111.05234,771.16168 229.0692,550.80794 229.06164,550.80235 l 355.15229,-1.50036 c 40.50012,81.02006 48.85143,182.13313 121.50036,243.06019 24.1994,66.82333 -82.79164,-28.3502 -108.05149,-26.66497 -21.14147,1.41048 8.17132,57.23474 -17.69253,81.124 -40,37.38246 -49.93092,-75.32726 -96.76649,-52.52283 -69.70893,33.94155 -9.03585,93.76302 -48.30892,97.45465 -41.73541,3.92308 -48.39248,-83.88474 -108.02684,-99.85132 -38.17636,-10.22138 -97.40143,93.79943 -118.29659,69.0319 C 181.7243,829.11108 178.7106,762.78277 165.71429,786.6479 144.96374,824.75214 7.0532778,913.93248 69.898475,827.65805 z"
         style="fill:#784421;stroke:#000000;stroke-width:10;stroke-linecap:butt;stroke-linejoin:miter;stroke-miterlimit:4;stroke-opacity:1;stroke-dasharray:none" />
      <path
         d="m 582.858,549.81128 c 0,18.13148 -79.37175,32.82996 -177.28177,32.82996 -97.91001,0 -177.28177,-14.69848 -177.28177,-32.82996 0,-18.13148 79.37176,-32.82996 177.28177,-32.82996 97.91002,0 177.28177,14.69848 177.28177,32.82996 z"
         sodipodi:ry="32.829956"
         sodipodi:rx="177.28177"
         sodipodi:cy="549.81128"
         sodipodi:cx="405.57623"
         id="path2987"
         style="fill:#d38d5f;fill-opacity:1;stroke:#000000;stroke-width:10;stroke-linecap:round;stroke-miterlimit:4;stroke-opacity:1;stroke-dasharray:none;stroke-dashoffset:0"
         sodipodi:type="arc" />
    </g>
    <g
       id="g5240"
       transform="translate(4.0406102,-470.73109)">
      <path
         sodipodi:nodetypes="ssccccccss"
         inkscape:connector-curvature="0"
         id="path5234"
         d="m 401.375,-414.1875 c -97.14188,0 -175.90625,13.52784 -175.90625,30.21875 0,1.6757 -1.68265,20.09046 -0.15625,21.69196 l -0.625,-16.78571 0,889.0625 353.125,0 0,-889.0625 -0.0491,14.28571 c 1.5264,-1.6015 -0.51339,-17.51626 -0.51339,-19.19196 0,-16.69091 -78.73312,-30.21875 -175.875,-30.21875 z"
         style="fill:#784421;fill-opacity:1;stroke:#000000;stroke-width:11.00546646;stroke-miterlimit:4;stroke-dasharray:none" />
      <path
         transform="translate(-4.2857143,-40)"
         sodipodi:type="arc"
         style="fill:#d38d5f;fill-opacity:1;stroke:#000000;stroke-width:10;stroke-linecap:round;stroke-miterlimit:4;stroke-opacity:1;stroke-dasharray:none;stroke-dashoffset:0"
         id="path2996"
         sodipodi:cx="405.57623"
         sodipodi:cy="549.81128"
         sodipodi:rx="177.28177"
         sodipodi:ry="32.829956"
         d="m 582.858,549.81128 c 0,18.13148 -79.37175,32.82996 -177.28177,32.82996 -97.91001,0 -177.28177,-14.69848 -177.28177,-32.82996 0,-18.13148 79.37176,-32.82996 177.28177,-32.82996 97.91002,0 177.28177,14.69848 177.28177,32.82996 z" />
    </g>
    <path
       style="fill:#008000;stroke:#000000;stroke-width:10;stroke-linecap:butt;stroke-linejoin:miter;stroke-miterlimit:4;stroke-opacity:1;stroke-dasharray:none"
       d="m 1169.5662,776.45207 c -11.1278,288.33273 1090.2709,55.64495 1179.8583,32.32488 C 2154.311,695.09851 1974.8813,476.77444 1929.201,235.01031 c 165.894,124.49785 319.35,194.72894 464.6702,206.07112 -197.6639,-230.31477 -488.6009,-460.629502 -456.5889,-690.9443 312.324,306.413098 325.4106,211.655098 408.1016,230.314698 -472.3378,-429.424998 -634.4633,-942.979368 -743.4723,-897.015368 -109.0089,45.964 167.9162,164.37747 -569.7261,783.87837 158.7946,29.0073 323.9636,57.272798 448.5078,-101.0153 C 1366.6892,35.030328 1213.2781,201.96182 866.52054,396.63471 1021.7108,531.57909 1224.0789,525.26209 1464.5309,255.21336 z"
       id="path3008"
       inkscape:connector-curvature="0"
       sodipodi:nodetypes="cccccczccccc" />
    <g
       id="g5230"
       transform="translate(-731.35044,-373.75644)">
      <rect
         y="452.33157"
         x="224.80788"
         height="111.57993"
         width="352.96869"
         id="rect3784"
         style="fill:#784421;fill-opacity:1;stroke:#000000;stroke-width:8.41418743;stroke-linecap:round;stroke-miterlimit:4;stroke-opacity:1;stroke-dasharray:none;stroke-dashoffset:0" />
      <rect
         y="284.64624"
         x="229.88585"
         height="386.88843"
         width="343.06497"
         id="rect5228"
         style="fill:#784421;fill-opacity:1;stroke:none" />
    </g>
  </g>
</svg>
