<?xml version="1.0" encoding="UTF-8" standalone="no"?>
<!-- Created with Inkscape (http://www.inkscape.org/) -->

<svg
   xmlns:dc="http://purl.org/dc/elements/1.1/"
   xmlns:cc="http://creativecommons.org/ns#"
   xmlns:rdf="http://www.w3.org/1999/02/22-rdf-syntax-ns#"
   xmlns:svg="http://www.w3.org/2000/svg"
   xmlns="http://www.w3.org/2000/svg"
   xmlns:sodipodi="http://sodipodi.sourceforge.net/DTD/sodipodi-0.dtd"
   xmlns:inkscape="http://www.inkscape.org/namespaces/inkscape"
   width="744.09448819"
   height="1052.3622047"
   id="svg2"
   version="1.1"
   inkscape:version="0.48.5 r10040"
   sodipodi:docname="Player.svg"
   inkscape:export-filename="C:\Users\Quinn\git\RollingThunder\Assets\Original Art\player\Player.png"
   inkscape:export-xdpi="90"
   inkscape:export-ydpi="90">
  <defs
     id="defs4" />
  <sodipodi:namedview
     id="base"
     pagecolor="#ffffff"
     bordercolor="#666666"
     borderopacity="1.0"
     inkscape:pageopacity="0.0"
     inkscape:pageshadow="2"
     inkscape:zoom="1.4"
     inkscape:cx="442.82962"
     inkscape:cy="578.22025"
     inkscape:document-units="px"
     inkscape:current-layer="layer1"
     showgrid="false"
     inkscape:window-width="1920"
     inkscape:window-height="1018"
     inkscape:window-x="-8"
     inkscape:window-y="-8"
     inkscape:window-maximized="1" />
  <metadata
     id="metadata7">
    <rdf:RDF>
      <cc:Work
         rdf:about="">
        <dc:format>image/svg+xml</dc:format>
        <dc:type
           rdf:resource="http://purl.org/dc/dcmitype/StillImage" />
        <dc:title></dc:title>
      </cc:Work>
    </rdf:RDF>
  </metadata>
  <g
     inkscape:label="Layer 1"
     inkscape:groupmode="layer"
     id="layer1">
    <path
       sodipodi:type="arc"
       style="fill:#000000;fill-opacity:1;stroke:#000000;stroke-width:1;stroke-linecap:round;stroke-miterlimit:4;stroke-opacity:1;stroke-dasharray:none;stroke-dashoffset:0"
       id="Body"
       sodipodi:cx="386.88843"
       sodipodi:cy="442.23004"
       sodipodi:rx="33.335033"
       sodipodi:ry="88.893425"
       d="m 420.22346,442.23004 a 33.335033,88.893425 0 1 1 -66.67007,0 33.335033,88.893425 0 1 1 66.67007,0 z"
       transform="translate(-12.121826,0)" />
    <path
       sodipodi:type="arc"
       style="fill:#4d4d4d;fill-opacity:1;stroke:#000000;stroke-width:1;stroke-linecap:round;stroke-miterlimit:4;stroke-opacity:1;stroke-dasharray:none;stroke-dashoffset:0"
       id="Upper Arm"
       sodipodi:cx="491.94427"
       sodipodi:cy="393.74274"
       sodipodi:rx="51.51778"
       sodipodi:ry="12.121831"
       d="m 543.46206,393.74274 a 51.51778,12.121831 0 1 1 -103.03557,0 51.51778,12.121831 0 1 1 103.03557,0 z"
       transform="translate(-23.039167,-27.151569)" />
    <path
       sodipodi:type="arc"
       style="fill:#000000;fill-opacity:1;stroke:#000000;stroke-width:1;stroke-linecap:round;stroke-miterlimit:4;stroke-opacity:1;stroke-dasharray:none;stroke-dashoffset:0"
       id="Thigh"
       sodipodi:cx="456.58896"
       sodipodi:cy="596.78339"
       sodipodi:rx="12.121831"
       sodipodi:ry="49.497475"
       d="m 468.71079,596.78339 a 12.121831,49.497475 0 1 1 -24.24366,0 12.121831,49.497475 0 1 1 24.24366,0 z"
       transform="translate(-132.54896,-21.876727)" />
    <path
       sodipodi:type="arc"
       style="fill:#000000;fill-opacity:1;stroke:#000000;stroke-width:1;stroke-linecap:round;stroke-miterlimit:4;stroke-opacity:1;stroke-dasharray:none;stroke-dashoffset:0"
       id="Calf"
       sodipodi:cx="457.59909"
       sodipodi:cy="733.15399"
       sodipodi:rx="11.111678"
       sodipodi:ry="58.588848"
       d="m 468.71077,733.15399 a 11.111678,58.588848 0 1 1 -22.22336,0 11.111678,58.588848 0 1 1 22.22336,0 z"
       transform="translate(-67.13052,-76.162441)" />
    <g
       id="Head"
       transform="translate(-0.71428572,-12.142857)">
      <path
         transform="translate(0,31.428571)"
         d="m 424.26408,253.33151 c 0,38.49454 -22.16078,69.70053 -49.49748,69.70053 -27.3367,0 -49.49747,-31.20599 -49.49747,-69.70053 0,-38.49453 22.16077,-69.70052 49.49747,-69.70052 27.3367,0 49.49748,31.20599 49.49748,69.70052 z"
         sodipodi:ry="69.700523"
         sodipodi:rx="49.497475"
         sodipodi:cy="253.33151"
         sodipodi:cx="374.7666"
         id="path2985"
         style="fill:#000000;fill-opacity:1;stroke:#000000;stroke-width:1;stroke-linecap:round;stroke-miterlimit:4;stroke-opacity:1;stroke-dasharray:none;stroke-dashoffset:0"
         sodipodi:type="arc" />
      <path
         transform="translate(0,31.428571)"
         d="m 428.57144,243.79076 c 0,9.86222 -4.47715,17.85714 -10,17.85714 -5.52285,0 -10,-7.99492 -10,-17.85714 0,-9.86223 4.47715,-17.85715 10,-17.85715 5.52285,0 10,7.99492 10,17.85715 z"
         sodipodi:ry="17.857143"
         sodipodi:rx="10"
         sodipodi:cy="243.79076"
         sodipodi:cx="418.57144"
         id="path2999"
         style="fill:#ffffff;fill-opacity:1;stroke:#000000;stroke-width:1;stroke-linecap:round;stroke-miterlimit:4;stroke-opacity:1;stroke-dasharray:none;stroke-dashoffset:0"
         sodipodi:type="arc" />
      <path
         transform="translate(2.1428571,26.428571)"
         d="m 426.42858,272.36218 c 0,1.57796 -2.71828,2.85715 -6.07143,2.85715 -3.35316,0 -6.07143,-1.27919 -6.07143,-2.85715 0,-1.57795 2.71827,-2.85714 6.07143,-2.85714 3.35315,0 6.07143,1.27919 6.07143,2.85714 z"
         sodipodi:ry="2.8571429"
         sodipodi:rx="6.0714288"
         sodipodi:cy="272.36218"
         sodipodi:cx="420.35715"
         id="path3001"
         style="fill:#000000;fill-opacity:1;stroke:#000000;stroke-width:1;stroke-linecap:round;stroke-miterlimit:4;stroke-opacity:1;stroke-dasharray:none;stroke-dashoffset:0"
         sodipodi:type="arc" />
      <path
         transform="translate(1.6071429,2.6785714)"
         d="m 426.60713,272.80862 c 0,2.90936 -0.47969,5.26786 -1.07142,5.26786 -0.59174,0 -1.07143,-2.3585 -1.07143,-5.26786 0,-2.90935 0.47969,-5.26785 1.07143,-5.26785 0.59173,0 1.07142,2.3585 1.07142,5.26785 z"
         sodipodi:ry="5.2678571"
         sodipodi:rx="1.0714285"
         sodipodi:cy="272.80862"
         sodipodi:cx="425.53571"
         id="path3016"
         style="fill:#000000;fill-opacity:1;stroke:#000000;stroke-width:1;stroke-linecap:round;stroke-miterlimit:4;stroke-opacity:1;stroke-dasharray:none;stroke-dashoffset:0"
         sodipodi:type="arc" />
    </g>
    <g
       id="Arm"
       transform="translate(78.571429,0.71428572)">
      <path
         transform="translate(-99.467738,-38.385795)"
         d="m 664.68036,402.83411 c 0,5.02102 -19.89948,9.09137 -44.44672,9.09137 -24.54724,0 -44.44671,-4.07035 -44.44671,-9.09137 0,-5.02103 19.89947,-9.09138 44.44671,-9.09138 24.54724,0 44.44672,4.07035 44.44672,9.09138 z"
         sodipodi:ry="9.0913725"
         sodipodi:rx="44.446712"
         sodipodi:cy="402.83411"
         sodipodi:cx="620.23364"
         id="path2991"
         style="fill:#4d4d4d;fill-opacity:1;stroke:#000000;stroke-width:1;stroke-linecap:round;stroke-miterlimit:4;stroke-opacity:1;stroke-dasharray:none;stroke-dashoffset:0"
         sodipodi:type="arc" />
      <path
         transform="matrix(1.1534099,0,0,1,-92.518335,-0.75761441)"
         d="m 579.99999,364.50504 c 0,5.52284 -3.67766,10 -8.21428,10 -4.53663,0 -8.21429,-4.47716 -8.21429,-10 0,-5.52285 3.67766,-10 8.21429,-10 4.53662,0 8.21428,4.47715 8.21428,10 z"
         sodipodi:ry="10"
         sodipodi:rx="8.2142859"
         sodipodi:cy="364.50504"
         sodipodi:cx="571.78571"
         id="path3037"
         style="fill:#666666;fill-opacity:1;stroke:#000000;stroke-width:1;stroke-linecap:round;stroke-miterlimit:4;stroke-opacity:1;stroke-dasharray:none;stroke-dashoffset:0"
         sodipodi:type="arc" />
    </g>
    <path
       sodipodi:type="arc"
       style="fill:#000000;fill-opacity:1;stroke:#000000;stroke-width:1;stroke-linecap:round;stroke-miterlimit:4;stroke-opacity:1;stroke-dasharray:none;stroke-dashoffset:0"
       id="Foot"
       sodipodi:cx="406.33386"
       sodipodi:cy="741.48773"
       sodipodi:rx="15.909903"
       sodipodi:ry="4.2931485"
       d="m 422.24376,741.48773 a 15.909903,4.2931485 0 1 1 -31.8198,0 15.909903,4.2931485 0 1 1 31.8198,0 z"
       transform="matrix(1.6574055,0,0,1.5288205,-293.08411,-393.38232)" />
    <path
       sodipodi:type="arc"
       style="fill:#ff0000;fill-opacity:1;stroke:#000000;stroke-width:1;stroke-linecap:round;stroke-miterlimit:4;stroke-opacity:1;stroke-dasharray:none;stroke-dashoffset:0"
       id="path2995"
       sodipodi:cx="519.64288"
       sodipodi:cy="518.79077"
       sodipodi:rx="9.6428576"
       sodipodi:ry="9.2857141"
       d="m 529.28574,518.79077 a 9.6428576,9.2857141 0 1 1 -19.28571,0 9.6428576,9.2857141 0 1 1 19.28571,0 z" />
  </g>
</svg>
